Armaan 2003 DvDrip 1CD X264 AAC [RRG DBB][DADA] 


-: Cover :- 


 
http://desibbrg.net/imghost/show.php?img=430137_Armaan.2003.DvDrip.1CD.X264.AAC.RRG.DADA..jpg.html


-: Screens :-
 
http://desibbrg.net/imghost/show.php?img=430134_Armaan.2003.DvDrip.1CD.X264.AAC.RRG.DADA.DBBIANS.Com.mp4snapshot00.06.302013.03.1609.45.35.jpg.html 
http://desibbrg.net/imghost/show.php?img=430133_Armaan.2003.DvDrip.1CD.X264.AAC.RRG.DADA.DBBIANS.Com.mp4snapshot00.49.502013.03.1609.48.46.jpg.html 
http://desibbrg.net/imghost/show.php?img=430132_Armaan.2003.DvDrip.1CD.X264.AAC.RRG.DADA.DBBIANS.Com.mp4snapshot01.11.182013.03.1609.51.33.jpg.html 
http://desibbrg.net/imghost/show.php?img=430131_Armaan.2003.DvDrip.1CD.X264.AAC.RRG.DADA.DBBIANS.Com.mp4snapshot01.39.162013.03.1609.52.46.jpg.html 
http://desibbrg.net/imghost/show.php?img=430130_Armaan.2003.DvDrip.1CD.X264.AAC.RRG.DADA.DBBIANS.Com.mp4snapshot02.28.542013.03.1609.56.08.jpg.html
 
http://desibbrg.net/imghost/show.php?img=430138_Armaan.2003.DvDrip.1CD.X264.AAC.RRG.DADA.DBBIANS.Comthumbs.jpg.html


-: Info :-  


General

Format                           : MP4 Video
File size                        : 811 MiB
Duration                         : 2h 32mn
Overall bit rate                 : 743 Kbps

Video
Format                           : AVC
Format/Info                      : Advanced Video Codec
Format profile                   : Main@L3.0
Format settings, CABAC           : Yes
Format settings, ReFrames        : 3 frames
Duration                         : 2h 32mn
Bit rate                         : 606 Kbps
Width                            : 854 pixels
Height                           : 480 pixels
Display aspect ratio             : 16:9
Frame rate mode                  : Constant
Frame rate                       : 25.000 fps
Color space                      : YUV
Chroma subsampling               : 4:2:0
Bit depth                        : 8 bits
Scan type                        : Progressive
Bits/(Pixel*Frame)               : 0.059
Stream size                      : 662 MiB (82%)

Audio
Format                           : AAC
Format/Info                      : Advanced Audio Codec
Format version                   : Version 4
Format profile                   : LC
Format settings, SBR             : No
Duration                         : 2h 32mn
Bit rate                         : 129 Kbps
Channel(s)                       : 2 channels
Channel positions                : Front: L R
Sampling rate                    : 44.1 KHz
Bit depth                        : 16 bits
Stream size                      : 140 MiB (17%)


 
http://www.imdb.com/title/tt0331851/


    Genres:
Indian Cinema, Drama, Family
    Language:
Hindi
    Running time:
2:32:40
    Released:
Aug 10, 2003

Cast & Crew
Cast

    Amitabh Bachchan
    Anil Kapoor
    Preity Zinta
    Gracy Singh
    Randhir Kapoor.

Directors

    Honey Irani

Producers

    Dinesh Gandhi

Writers

    Javed Akhtar



Armaan a Family Drama (2003) Synopsis: Dr. Siddharth Sinha is a dedicated selfless doctor who dreams of building a state-of-the-art hospital with all the modern instruments and amenities for patient care . His foster son Akash shares his dream . Akash falls in love with Neha Mathur , an anaesthetist in the same hospital . In a friend's party , Akash meets Sonia who is a spoilt daughter of a millionaire Gulshan Kapoor . Sonia develops an infatuation for Akash . Gulshan Kapoor proposes to Dr. Siddharth Sinha that he will donate a big sum of money to his hospital , on the condition that Akash marries Sonia . Dr. Siddharth Sinha declines but dies of a heart attack a few days later . Burdened with fulfilling his father's dream , Akash decides to marry Sonia sacrificing his own love . But even after marriage Sonia is jealous of Neha and constantly accuses Akash of infidelity which leaves him in a dilemma , torn between two women . 
